<svg aria-hidden="true" style="position: absolute; width: 0; height: 0; overflow: hidden;" version="1.1" xmlns="http://www.w3.org/2000/svg" xmlns:xlink="http://www.w3.org/1999/xlink">
<defs>
<symbol id="icon-java" viewBox="0 0 32 32">
<path fill="#fff" style="fill: #fff" d="M11.801 24.747c0 0-1.223 0.712 0.871 0.952 2.536 0.291 3.832 0.249 6.625-0.281 0 0 0.736 0.461 1.761 0.861-6.265 2.684-14.177-0.157-9.257-1.532zM11.035 21.244c0 0-1.371 1.015 0.723 1.232 2.709 0.279 4.848 0.303 8.551-0.411 0 0 0.512 0.519 1.316 0.803-7.572 2.215-16.009 0.173-10.589-1.624zM17.488 15.3c1.544 1.777-0.405 3.377-0.405 3.377s3.919-2.024 2.119-4.557c-1.681-2.363-2.971-3.536 4.009-7.584 0-0.001-10.955 2.735-5.723 8.764zM25.773 27.339c0 0 0.905 0.745-0.996 1.321-3.616 1.096-15.051 1.425-18.225 0.044-1.141-0.497 1-1.187 1.672-1.331 0.703-0.152 1.104-0.124 1.104-0.124-1.271-0.895-8.208 1.756-3.524 2.516 12.773 2.071 23.283-0.933 19.969-2.427zM12.389 17.613c0 0-5.816 1.381-2.059 1.883 1.585 0.212 4.748 0.164 7.693-0.083 2.408-0.203 4.824-0.636 4.824-0.636s-0.849 0.363-1.464 0.783c-5.905 1.553-17.315 0.831-14.029-0.757 2.776-1.341 5.035-1.189 5.035-1.189zM22.821 23.445c6.004-3.12 3.228-6.119 1.291-5.713-0.473 0.099-0.687 0.184-0.687 0.184s0.176-0.276 0.513-0.396c3.833-1.348 6.781 3.975-1.237 6.083 0-0.001 0.093-0.083 0.12-0.157zM19.201 0c0 0 3.325 3.325-3.153 8.44-5.195 4.103-1.184 6.443-0.001 9.115-3.032-2.737-5.257-5.144-3.765-7.385 2.192-3.292 8.263-4.887 6.92-10.169zM12.979 31.899c5.763 0.369 14.612-0.204 14.821-2.931 0 0-0.403 1.033-4.763 1.855-4.917 0.925-10.985 0.817-14.583 0.224 0-0.001 0.737 0.609 4.524 0.852z"></path>
</symbol>
<symbol id="icon-swift" viewBox="0 0 32 32">
<path fill="#fff" style="fill: #fff" d="M29.312 21.797c0.075-0.149 0.075-0.299 0.149-0.448 1.795-7.029-2.468-15.253-9.796-19.591 3.216 4.337 4.487 9.496 3.365 14.132-0.075 0.373-0.224 0.823-0.373 1.196-0.237-0.132-0.433-0.255-0.622-0.388l0.022 0.015c0 0-7.252-4.487-15.027-12.337-0.225-0.224 4.187 6.28 9.121 11.44-2.317-1.347-8.897-6.056-13.011-9.871 0.449 0.823 1.123 1.645 1.795 2.468 3.44 4.412 7.927 9.795 13.311 13.907-3.813 2.32-9.123 2.468-14.507 0-1.347-0.597-2.467-1.345-3.739-2.243 2.243 3.515 5.757 6.731 9.945 8.449 5.009 2.169 10.093 2.020 13.757 0h0.076c0.149-0.075 0.299-0.149 0.448-0.299 1.795-0.897 5.309-1.869 7.253 1.869 0.523 1.047 1.495-3.813-2.169-8.3z"></path>
</symbol>
<symbol id="icon-php" viewBox="0 0 32 32">
<path fill="#fff" style="fill: #fff" d="M9.347 13.609h-1.259l-0.687 3.531h1.117c0.741 0 1.293-0.14 1.656-0.419 0.363-0.28 0.607-0.745 0.733-1.399 0.123-0.627 0.067-1.069-0.165-1.327-0.233-0.257-0.697-0.387-1.396-0.387zM16 7.584c-8.836 0-16 3.768-16 8.416s7.164 8.417 16 8.417 16-3.769 16-8.417-7.164-8.416-16-8.416zM11.653 17.519c-0.348 0.333-0.767 0.584-1.223 0.735-0.448 0.144-1.020 0.219-1.713 0.219h-1.575l-0.436 2.241h-1.837l1.64-8.435h3.533c1.063 0 1.837 0.279 2.325 0.837 0.488 0.557 0.635 1.336 0.44 2.336-0.082 0.425-0.223 0.803-0.416 1.148l0.010-0.019c-0.191 0.34-0.44 0.653-0.748 0.937zM17.019 18.472l0.724-3.732c0.084-0.424 0.052-0.715-0.091-0.868-0.143-0.155-0.448-0.232-0.916-0.232h-1.456l-0.939 4.833h-1.824l1.64-8.436h1.823l-0.436 2.243h1.624c1.023 0 1.727 0.179 2.115 0.535s0.504 0.933 0.351 1.732l-0.763 3.925zM27.148 15.452c-0.080 0.425-0.221 0.803-0.416 1.148l0.010-0.018c-0.191 0.34-0.44 0.653-0.748 0.937-0.338 0.323-0.746 0.574-1.2 0.728l-0.023 0.007c-0.448 0.144-1.020 0.219-1.715 0.219h-1.573l-0.436 2.243h-1.837l1.64-8.435h3.532c1.063 0 1.837 0.279 2.325 0.837 0.488 0.556 0.636 1.335 0.441 2.335zM23.688 13.609h-1.257l-0.688 3.531h1.117c0.743 0 1.295-0.14 1.656-0.419 0.363-0.28 0.607-0.745 0.735-1.399 0.123-0.627 0.065-1.069-0.167-1.327s-0.699-0.387-1.396-0.387z"></path>
</symbol>
<symbol id="icon-node-dot-js" viewBox="0 0 32 32">
<path fill="#fff" style="fill: #fff" d="M15.997 32c-0.428 0-0.855-0.112-1.229-0.329l-3.915-2.316c-0.584-0.327-0.299-0.443-0.107-0.511 0.78-0.271 0.937-0.333 1.771-0.805 0.087-0.049 0.201-0.031 0.291 0.023l3.008 1.785c0.109 0.060 0.263 0.060 0.363 0l11.727-6.768c0.109-0.063 0.179-0.188 0.179-0.317v-13.533c0-0.132-0.071-0.256-0.183-0.323l-11.721-6.763c-0.108-0.063-0.252-0.063-0.361 0l-11.719 6.764c-0.113 0.065-0.185 0.193-0.185 0.321v13.533c0 0.129 0.072 0.252 0.185 0.313l3.212 1.856c1.743 0.872 2.811-0.155 2.811-1.187v-13.361c0-0.189 0.152-0.337 0.341-0.337h1.487c0.185 0 0.34 0.149 0.34 0.337v13.361c0 2.327-1.267 3.66-3.472 3.66-0.677 0-1.212 0-2.701-0.735l-3.077-1.769c-0.76-0.439-1.229-1.26-1.229-2.139v-13.533c0-0.879 0.471-1.7 1.229-2.137l11.727-6.776c0.743-0.42 1.728-0.42 2.464 0l11.725 6.776c0.76 0.439 1.232 1.259 1.232 2.137v13.533c0 0.879-0.472 1.697-1.232 2.139l-11.725 6.771c-0.373 0.217-0.799 0.329-1.233 0.329zM25.465 18.657c0-2.533-1.712-3.208-5.316-3.684-3.641-0.481-4.012-0.731-4.012-1.583 0-0.704 0.313-1.644 3.011-1.644 2.409 0 3.297 0.519 3.663 2.143 0.032 0.153 0.172 0.265 0.329 0.265h1.521c0.095 0 0.184-0.041 0.248-0.108 0.064-0.072 0.099-0.164 0.089-0.261-0.236-2.797-2.095-4.101-5.851-4.101-3.344 0-5.339 1.411-5.339 3.777 0 2.567 1.984 3.276 5.193 3.593 3.84 0.376 4.137 0.937 4.137 1.692 0 1.311-1.052 1.869-3.523 1.869-3.103 0-3.785-0.779-4.015-2.323-0.027-0.165-0.168-0.287-0.337-0.287h-1.516c-0.188 0-0.339 0.149-0.339 0.337 0 1.976 1.075 4.331 6.207 4.331 3.717 0.001 5.848-1.461 5.848-4.017z"></path>
</symbol>
<symbol id="icon-python" viewBox="0 0 32 32">
<path fill="#fff" style="fill: #fff" d="M19.080 0.24l1.2 0.267 0.973 0.347 0.787 0.4 0.6 0.427 0.453 0.453 0.333 0.453 0.213 0.44 0.133 0.4 0.053 0.347 0.027 0.267-0.013 0.173v7.12l-0.067 0.84-0.173 0.733-0.28 0.613-0.347 0.507-0.4 0.413-0.44 0.333-0.467 0.253-0.467 0.187-0.44 0.133-0.4 0.093-0.347 0.053-0.28 0.027h-7.96l-0.92 0.067-0.787 0.187-0.667 0.293-0.547 0.36-0.44 0.427-0.36 0.467-0.267 0.48-0.2 0.493-0.133 0.467-0.093 0.427-0.053 0.36-0.027 0.28v4.080h-2.973l-0.28-0.040-0.373-0.093-0.427-0.16-0.467-0.24-0.48-0.347-0.48-0.48-0.467-0.613-0.427-0.787-0.373-0.973-0.28-1.173-0.187-1.4-0.067-1.64 0.080-1.627 0.213-1.387 0.32-1.16 0.427-0.947 0.48-0.76 0.533-0.587 0.56-0.44 0.56-0.32 0.533-0.213 0.48-0.133 0.427-0.067 0.32-0.013h0.213l0.080 0.013h10.88v-1.107h-7.787l-0.013-3.667-0.027-0.493 0.067-0.453 0.147-0.413 0.227-0.373 0.333-0.347 0.413-0.307 0.507-0.267 0.587-0.24 0.68-0.2 0.773-0.16 0.853-0.133 0.947-0.080 1.027-0.053 1.12-0.027 1.693 0.067zM10.68 2.88l-0.307 0.44-0.107 0.547 0.107 0.547 0.307 0.453 0.44 0.293 0.547 0.12 0.547-0.12 0.44-0.293 0.307-0.453 0.107-0.547-0.107-0.547-0.307-0.44-0.44-0.293-0.547-0.12-0.547 0.12zM28.133 8.147l0.373 0.080 0.427 0.16 0.467 0.24 0.48 0.36 0.48 0.467 0.467 0.627 0.427 0.787 0.373 0.973 0.28 1.173 0.187 1.387 0.067 1.64-0.080 1.64-0.213 1.387-0.32 1.147-0.427 0.947-0.48 0.76-0.533 0.6-0.56 0.44-0.56 0.32-0.533 0.213-0.48 0.12-0.427 0.067-0.32 0.027-0.213-0.013h-10.96v1.093h7.787l0.013 3.68 0.027 0.48-0.067 0.453-0.147 0.413-0.227 0.387-0.333 0.333-0.413 0.32-0.507 0.267-0.587 0.227-0.68 0.2-0.773 0.173-0.853 0.12-0.947 0.093-1.027 0.053-1.12 0.013-1.693-0.053-1.427-0.187-1.2-0.267-0.973-0.333-0.787-0.4-0.6-0.44-0.453-0.453-0.333-0.453-0.213-0.44-0.133-0.4-0.053-0.333-0.027-0.267 0.013-0.173v-7.12l0.067-0.853 0.173-0.72 0.28-0.613 0.347-0.507 0.4-0.427 0.44-0.32 0.467-0.267 0.467-0.187 0.44-0.133 0.4-0.080 0.347-0.053 0.28-0.027 0.173-0.013h7.787l0.92-0.067 0.787-0.187 0.667-0.28 0.547-0.373 0.44-0.427 0.36-0.467 0.267-0.48 0.2-0.48 0.133-0.467 0.093-0.427 0.053-0.373 0.027-0.28v-4.080h2.787l0.187 0.013zM19.507 27.147l-0.307 0.44-0.107 0.547 0.107 0.547 0.307 0.44 0.44 0.307 0.547 0.107 0.547-0.107 0.44-0.307 0.307-0.44 0.107-0.547-0.107-0.547-0.307-0.44-0.44-0.307-0.547-0.107-0.547 0.107z"></path>
</symbol>
<symbol id="icon-vue-dot-js" viewBox="0 0 32 32">
<path fill="#fff" style="fill: #fff" d="M32 2.147h-13.253l-2.747 4.733-2.747-4.733h-13.253l16 27.707zM16 18.773l-9.12-15.8h5.907l3.213 5.573 3.213-5.573h5.907z"></path>
</symbol>
<symbol id="icon-angular" viewBox="0 0 32 32">
<path fill="#fff" style="fill: #fff" d="M13.24 16.86h5.512l-2.757-6.54zM15.995 0.012l-15.080 5.305 2.3 19.68 12.78 6.991 12.784-6.984 2.299-19.684zM25.405 24.408h-3.515l-1.893-4.668h-8.004l-1.893 4.668h-3.517l9.413-20.864z"></path>
</symbol>
<symbol id="icon-react" viewBox="0 0 32 32">
<path fill="#fff" style="fill: #fff" d="M16 13.148c-1.575 0-2.852 1.277-2.852 2.852s1.277 2.852 2.852 2.852v0c1.575 0 2.852-1.277 2.852-2.852s-1.277-2.852-2.852-2.852v0zM8.011 21.673l-0.629-0.16c-4.691-1.185-7.381-3.197-7.381-5.519s2.691-4.333 7.381-5.519l0.629-0.159 0.177 0.624c0.545 1.86 1.163 3.443 1.899 4.957l-0.082-0.186 0.135 0.284-0.135 0.284c-0.656 1.329-1.275 2.912-1.761 4.551l-0.056 0.22zM7.089 11.933c-3.565 1.001-5.753 2.533-5.753 4.061 0 1.527 2.188 3.059 5.753 4.061 0.512-1.62 1.046-2.965 1.662-4.263l-0.086 0.202c-0.531-1.098-1.066-2.443-1.511-3.828l-0.065-0.234zM23.989 21.673l-0.177-0.625c-0.544-1.859-1.162-3.441-1.9-4.954l0.081 0.184-0.135-0.284 0.135-0.284c0.656-1.329 1.275-2.911 1.762-4.55l0.056-0.221 0.177-0.624 0.631 0.159c4.689 1.185 7.38 3.197 7.38 5.52s-2.691 4.333-7.38 5.519zM23.335 15.995c0.64 1.385 1.169 2.747 1.576 4.061 3.567-1.003 5.753-2.535 5.753-4.061 0-1.528-2.188-3.059-5.753-4.061-0.511 1.619-1.045 2.963-1.662 4.262l0.086-0.2zM7.080 11.927l-0.177-0.623c-1.319-4.648-0.919-7.979 1.097-9.141 1.977-1.141 5.152 0.207 8.479 3.621l0.453 0.465-0.453 0.465c-1.146 1.19-2.207 2.482-3.162 3.853l-0.068 0.103-0.18 0.257-0.313 0.027c-1.875 0.151-3.596 0.439-5.264 0.86l0.218-0.047zM9.608 3.087c-0.357 0-0.673 0.077-0.94 0.231-1.325 0.764-1.56 3.42-0.647 7.004 1.21-0.285 2.681-0.521 4.18-0.658l0.131-0.010c0.894-1.264 1.792-2.37 2.756-3.414l-0.020 0.022c-2.080-2.025-4.049-3.175-5.46-3.175zM22.393 30.236c-0.001 0-0.001 0 0 0-1.9 0-4.34-1.431-6.872-4.031l-0.453-0.465 0.453-0.465c1.146-1.19 2.206-2.482 3.16-3.854l0.068-0.103 0.18-0.257 0.312-0.027c1.875-0.15 3.597-0.438 5.267-0.858l-0.218 0.046 0.629-0.159 0.179 0.624c1.316 4.645 0.917 7.977-1.099 9.139-0.449 0.259-0.988 0.411-1.562 0.411-0.016 0-0.031-0-0.047-0l0.002 0zM16.932 25.728c2.080 2.025 4.049 3.175 5.46 3.175h0.001c0.356 0 0.673-0.077 0.939-0.231 1.325-0.764 1.561-3.421 0.647-7.005-1.212 0.286-2.682 0.522-4.182 0.658l-0.13 0.010c-0.893 1.265-1.791 2.371-2.755 3.416l0.020-0.022zM24.92 11.927l-0.629-0.159c-1.453-0.376-3.175-0.664-4.939-0.806l-0.111-0.007-0.312-0.027-0.18-0.257c-1.021-1.474-2.082-2.766-3.237-3.966l0.009 0.010-0.453-0.465 0.453-0.465c3.325-3.413 6.499-4.761 8.479-3.621 2.016 1.163 2.416 4.493 1.099 9.14zM19.667 9.653c1.523 0.139 2.969 0.364 4.312 0.668 0.915-3.584 0.679-6.24-0.647-7.004-1.317-0.761-3.793 0.405-6.4 2.944 0.943 1.022 1.841 2.128 2.666 3.289l0.069 0.103zM9.608 30.236c-0.014 0-0.030 0-0.046 0-0.574 0-1.113-0.152-1.577-0.419l0.015 0.008c-2.016-1.161-2.416-4.492-1.097-9.139l0.176-0.624 0.629 0.159c1.54 0.388 3.239 0.661 5.047 0.812l0.313 0.027 0.179 0.257c1.022 1.475 2.083 2.767 3.239 3.967l-0.010-0.010 0.453 0.465-0.453 0.465c-2.531 2.6-4.971 4.031-6.868 4.031zM8.021 21.667c-0.915 3.584-0.679 6.241 0.647 7.005 1.316 0.751 3.791-0.407 6.4-2.944-0.943-1.022-1.841-2.129-2.667-3.29l-0.069-0.103c-1.629-0.146-3.099-0.382-4.534-0.711l0.224 0.043zM16 22.504c-1.097 0-2.225-0.048-3.355-0.141l-0.313-0.027-0.18-0.257c-0.544-0.768-1.139-1.691-1.697-2.639l-0.103-0.19c-0.452-0.758-0.971-1.732-1.45-2.728l-0.105-0.243-0.133-0.284 0.133-0.284c0.584-1.239 1.102-2.212 1.658-3.161l-0.103 0.191c0.552-0.955 1.159-1.907 1.8-2.829l0.18-0.257 0.313-0.027c1.005-0.090 2.174-0.142 3.355-0.142s2.35 0.052 3.505 0.153l-0.15-0.011 0.312 0.027 0.179 0.257c1.177 1.666 2.294 3.567 3.252 5.56l0.104 0.24 0.135 0.284-0.135 0.284c-1.058 2.232-2.176 4.133-3.439 5.925l0.083-0.125-0.179 0.257-0.312 0.027c-1.129 0.093-2.259 0.141-3.356 0.141zM13.071 21.059c1.973 0.148 3.885 0.148 5.86 0 1.004-1.445 1.978-3.104 2.827-4.836l0.101-0.228c-0.947-1.958-1.922-3.617-3.012-5.19l0.083 0.126c-0.877-0.071-1.898-0.111-2.929-0.111s-2.052 0.040-3.063 0.119l0.134-0.008c-1.008 1.447-1.983 3.106-2.83 4.84l-0.099 0.224c0.951 1.96 1.926 3.619 3.014 5.193l-0.085-0.13z"></path>
</symbol>
<symbol id="icon-twitter" viewBox="0 0 32 32">
<path d="M32 7.075c-1.175 0.525-2.444 0.875-3.769 1.031 1.356-0.813 2.394-2.1 2.887-3.631-1.269 0.75-2.675 1.3-4.169 1.594-1.2-1.275-2.906-2.069-4.794-2.069-3.625 0-6.563 2.938-6.563 6.563 0 0.512 0.056 1.012 0.169 1.494-5.456-0.275-10.294-2.888-13.531-6.862-0.563 0.969-0.887 2.1-0.887 3.3 0 2.275 1.156 4.287 2.919 5.463-1.075-0.031-2.087-0.331-2.975-0.819 0 0.025 0 0.056 0 0.081 0 3.181 2.263 5.838 5.269 6.437-0.55 0.15-1.131 0.231-1.731 0.231-0.425 0-0.831-0.044-1.237-0.119 0.838 2.606 3.263 4.506 6.131 4.563-2.25 1.762-5.075 2.813-8.156 2.813-0.531 0-1.050-0.031-1.569-0.094 2.913 1.869 6.362 2.95 10.069 2.95 12.075 0 18.681-10.006 18.681-18.681 0-0.287-0.006-0.569-0.019-0.85 1.281-0.919 2.394-2.075 3.275-3.394z"></path>
</symbol>
<symbol id="icon-github" viewBox="0 0 32 32">
<path d="M16 0.395c-8.836 0-16 7.163-16 16 0 7.069 4.585 13.067 10.942 15.182 0.8 0.148 1.094-0.347 1.094-0.77 0-0.381-0.015-1.642-0.022-2.979-4.452 0.968-5.391-1.888-5.391-1.888-0.728-1.849-1.776-2.341-1.776-2.341-1.452-0.993 0.11-0.973 0.11-0.973 1.606 0.113 2.452 1.649 2.452 1.649 1.427 2.446 3.743 1.739 4.656 1.33 0.143-1.034 0.558-1.74 1.016-2.14-3.554-0.404-7.29-1.777-7.29-7.907 0-1.747 0.625-3.174 1.649-4.295-0.166-0.403-0.714-2.030 0.155-4.234 0 0 1.344-0.43 4.401 1.64 1.276-0.355 2.645-0.532 4.005-0.539 1.359 0.006 2.729 0.184 4.008 0.539 3.054-2.070 4.395-1.64 4.395-1.64 0.871 2.204 0.323 3.831 0.157 4.234 1.026 1.12 1.647 2.548 1.647 4.295 0 6.145-3.743 7.498-7.306 7.895 0.574 0.497 1.085 1.47 1.085 2.963 0 2.141-0.019 3.864-0.019 4.391 0 0.426 0.288 0.925 1.099 0.768 6.354-2.118 10.933-8.113 10.933-15.18 0-8.837-7.164-16-16-16z"></path>
</symbol>
<symbol id="icon-linkedin2" viewBox="0 0 32 32">
<path d="M12 12h5.535v2.837h0.079c0.77-1.381 2.655-2.837 5.464-2.837 5.842 0 6.922 3.637 6.922 8.367v9.633h-5.769v-8.54c0-2.037-0.042-4.657-3.001-4.657-3.005 0-3.463 2.218-3.463 4.509v8.688h-5.767v-18z"></path>
<path d="M2 12h6v18h-6v-18z"></path>
<path d="M8 7c0 1.657-1.343 3-3 3s-3-1.343-3-3c0-1.657 1.343-3 3-3s3 1.343 3 3z"></path>
</symbol>
</defs>
</svg>
